<?xml version="1.0" standalone="no"?>
<svg xmlns:xlink="http://www.w3.org/1999/xlink" id="wave" style="transform:rotate(180deg); transition: 0.3s" viewBox="0 0 1440 490" version="1.1" xmlns="http://www.w3.org/2000/svg"><defs><linearGradient id="sw-gradient-0" x1="0" x2="0" y1="1" y2="0"><stop stop-color="rgba(0, 26.07, 164.284, 1)" offset="0%"/><stop stop-color="rgba(83.361, 255, 0, 1)" offset="100%"/></linearGradient></defs><path style="transform:translate(0, 0px); opacity:1" fill="url(#sw-gradient-0)" d="M0,98L26.7,138.8C53.3,180,107,261,160,294C213.3,327,267,310,320,269.5C373.3,229,427,163,480,130.7C533.3,98,587,98,640,138.8C693.3,180,747,261,800,269.5C853.3,278,907,212,960,212.3C1013.3,212,1067,278,1120,253.2C1173.3,229,1227,114,1280,114.3C1333.3,114,1387,229,1440,285.8C1493.3,343,1547,343,1600,334.8C1653.3,327,1707,310,1760,269.5C1813.3,229,1867,163,1920,155.2C1973.3,147,2027,196,2080,228.7C2133.3,261,2187,278,2240,269.5C2293.3,261,2347,229,2400,253.2C2453.3,278,2507,359,2560,375.7C2613.3,392,2667,343,2720,334.8C2773.3,327,2827,359,2880,326.7C2933.3,294,2987,196,3040,179.7C3093.3,163,3147,229,3200,253.2C3253.3,278,3307,261,3360,220.5C3413.3,180,3467,114,3520,147C3573.3,180,3627,310,3680,367.5C3733.3,425,3787,408,3813,400.2L3840,392L3840,490L3813.3,490C3786.7,490,3733,490,3680,490C3626.7,490,3573,490,3520,490C3466.7,490,3413,490,3360,490C3306.7,490,3253,490,3200,490C3146.7,490,3093,490,3040,490C2986.7,490,2933,490,2880,490C2826.7,490,2773,490,2720,490C2666.7,490,2613,490,2560,490C2506.7,490,2453,490,2400,490C2346.7,490,2293,490,2240,490C2186.7,490,2133,490,2080,490C2026.7,490,1973,490,1920,490C1866.7,490,1813,490,1760,490C1706.7,490,1653,490,1600,490C1546.7,490,1493,490,1440,490C1386.7,490,1333,490,1280,490C1226.7,490,1173,490,1120,490C1066.7,490,1013,490,960,490C906.7,490,853,490,800,490C746.7,490,693,490,640,490C586.7,490,533,490,480,490C426.7,490,373,490,320,490C266.7,490,213,490,160,490C106.7,490,53,490,27,490L0,490Z"/></svg>